<?xml version="1.0" encoding="utf-8"?>
<!-- Generator: Adobe Illustrator 16.0.0, SVG Export Plug-In . SVG Version: 6.00 Build 0)  -->
<!DOCTYPE svg PUBLIC "-//W3C//DTD SVG 1.1//EN" "http://www.w3.org/Graphics/SVG/1.1/DTD/svg11.dtd">
<svg version="1.1" id="Calque_1" xmlns="http://www.w3.org/2000/svg" xmlns:xlink="http://www.w3.org/1999/xlink" x="0px" y="0px"
	 width="2000px" height="2000px" viewBox="0 0 2000 2000" enable-background="new 0 0 2000 2000" xml:space="preserve">
<path fill="#FFFFFF" d="M360.919,1099.835c-0.002,348.587,282.582,631.174,631.169,631.176
	c284.27,0.002,533.463-190.027,608.68-464.165c-299.912,128.486-647.199-10.483-775.684-310.396
	c-63.647-148.566-63.647-316.722,0-465.288C550.979,566.424,360.972,815.586,360.919,1099.835z"/>
<polygon fill="#FFFFFF" points="1767.442,520.019 1633.793,463.187 1574.033,336.083 1514.274,463.187 1380.625,520.019 
	1514.274,576.851 1574.033,703.955 1633.793,576.851 "/>
<polygon fill="#FFFFFF" points="1342.897,992.146 1380.194,912.835 1463.584,877.362 1380.194,841.906 1342.897,762.579 
	1305.617,841.906 1222.209,877.362 1305.617,912.835 "/>
<polygon fill="#FFFFFF" points="1101.537,291.011 1064.24,370.323 980.849,405.795 1064.24,441.251 1101.537,520.563 
	1138.817,441.251 1222.209,405.795 1138.817,370.323 "/>
</svg>
