<svg width="170" height="50" viewBox="0 0 170 50" fill="none" xmlns="http://www.w3.org/2000/svg">
<path d="M43.0106 13.1003L32.0452 6.91869V10.9843L39.3879 15.0975C39.8498 15.359 40.1173 15.8345 40.1173 16.3338V33.6662C40.1173 34.1893 39.8255 34.6648 39.3879 34.9025L38.2938 35.5207L23.7786 27.3419C23.5355 27.1992 23.2437 27.1992 23.0006 27.3419L19.9857 29.0537L15.4634 31.6215L12.2297 33.4522C12.0838 33.5235 12.0838 33.7375 12.2297 33.8088L22.7331 39.7052C22.9276 39.8241 23.1951 39.8241 23.3896 39.7052L31.4374 35.1403L37.6373 38.6353L38.78 39.2772L42.9863 36.8997C43.4239 36.6619 43.6914 36.2102 43.6914 35.7109V14.2653C43.7157 13.7898 43.4482 13.3381 43.0106 13.1003ZM28.1064 33.5473L26.0155 34.7361C25.8696 34.8074 25.6994 34.8074 25.5535 34.7361L23.2194 33.4284L20.4234 34.9976C20.3018 35.0689 20.1559 35.0689 20.0343 34.9976L17.8461 33.7613C17.7246 33.69 17.7246 33.5473 17.8461 33.476L23.0492 30.5278C23.1222 30.4803 23.2194 30.4803 23.3167 30.5278L28.1064 33.2145C28.228 33.3096 28.228 33.476 28.1064 33.5473Z" fill="white"/>
<path d="M24.0462 43.5806C23.5843 43.8421 23.0251 43.8421 22.5874 43.5806L7.24559 34.9263C6.78363 34.6648 6.51618 34.1893 6.51618 33.69V32.4061L21.007 24.2273C21.2502 24.0846 21.396 23.8231 21.396 23.5616V20.1379V15.0499V11.4123C21.396 11.2458 21.2259 11.1507 21.08 11.2221L10.5765 17.1422C10.382 17.2611 10.2605 17.475 10.2605 17.689V26.7951L4.06052 30.2901L2.91779 30.932V35.7109C2.91779 36.2102 3.18523 36.6619 3.62288 36.8997L22.6117 47.6462C23.0494 47.884 23.5843 47.884 24.0219 47.6462L35.1332 41.3695L31.5348 39.3485L24.0462 43.5806ZM13.3483 22.3966C13.3483 22.2301 13.4455 22.0875 13.5914 21.9924L15.9255 20.661V17.5464C15.9255 17.4037 15.9985 17.2848 16.12 17.2135L18.3082 15.9772C18.4298 15.9058 18.5514 16.001 18.5514 16.1198V21.9924C18.5514 22.0875 18.5027 22.1588 18.4298 22.2064L13.64 24.893C13.5185 24.9643 13.3483 24.8692 13.3483 24.7266V22.3966Z" fill="white"/>
<path d="M6.49171 16.3338C6.49171 15.8107 6.78347 15.3352 7.22111 15.0975L22.5629 6.44317C23.0249 6.18164 23.5841 6.18164 24.0217 6.44317L25.2617 7.15644L25.286 23.3951C25.286 23.6805 25.4319 23.9182 25.6751 24.0609L28.6899 25.7489L33.1879 28.2929L36.4216 30.1236C36.5675 30.195 36.7377 30.0999 36.7377 29.9334V18.0932C36.7377 17.8554 36.6161 17.6415 36.3973 17.5464L28.3252 13.0052V5.99144V4.85021L24.0217 2.35378C23.5841 2.11602 23.0492 2.11602 22.6116 2.35378L3.5984 13.1003C3.16076 13.3381 2.89331 13.7898 2.89331 14.2891V26.795L6.49171 24.7741V16.3338ZM28.6413 16.5953L30.7323 17.7841C30.8781 17.8554 30.9754 18.0219 30.9754 18.1883V20.8274L33.7471 22.3966C33.8687 22.4679 33.9417 22.5868 33.9417 22.7294V25.2021C33.9417 25.321 33.7958 25.4161 33.6985 25.3447L28.4954 22.3966C28.4225 22.349 28.3739 22.2777 28.3739 22.1826V16.7855C28.3495 16.6191 28.4954 16.524 28.6413 16.5953Z" fill="white"/>
<path d="M162.998 34.4746C162.341 34.4746 161.053 34.4746 160.323 34.4746C160.299 34.4746 160.275 34.4746 160.25 34.4746C159.861 34.4746 159.326 34.4983 158.694 34.4746C157.722 34.4508 157.26 34.4508 156.773 34.4032C155.728 34.2606 154.804 34.1655 154.075 33.5473C153.418 32.9767 152.981 32.1208 152.786 30.9795H156.676H165.04C165.064 30.6467 165.089 30.4089 165.113 30.2425C165.113 30.0761 165.137 29.9096 165.137 29.7908C165.137 27.1755 164.384 25.107 162.876 23.6091C161.369 22.0875 159.326 21.3504 156.725 21.3504C154.221 21.3504 152.154 22.1588 150.525 23.7756C148.92 25.3923 148.118 27.437 148.118 29.9572C148.118 32.5487 148.896 34.6172 150.428 36.1626C151.886 37.6129 153.807 38.3737 156.239 38.4451H156.336C156.53 38.4451 156.676 38.4451 156.701 38.4689C158.232 38.564 160.81 38.5164 160.81 38.5164C161.612 38.4926 162.803 38.4689 164.335 38.4689C164.675 38.4689 165.016 38.4689 165.356 38.4689C165.721 38.4689 166.791 38.4689 167.155 38.4689C166.304 37.6605 165.453 36.8521 164.578 36.02C164.019 35.4494 163.508 34.9501 162.998 34.4746ZM153.102 27.4608C153.175 27.2706 153.248 27.0804 153.345 26.9139C153.37 26.8664 153.394 26.8188 153.418 26.7713C153.491 26.6524 153.564 26.5335 153.661 26.4146C153.686 26.3671 153.734 26.3195 153.759 26.272C153.88 26.1293 154.002 26.0105 154.148 25.8916C154.78 25.3685 155.631 25.1308 156.701 25.1308C157.77 25.1308 158.597 25.3923 159.229 25.8916C159.837 26.4146 160.226 27.1755 160.348 28.174H153.832H152.932C152.981 27.9125 153.029 27.6747 153.102 27.4608Z" fill="white"/>
<path d="M99.5151 26.0342C98.9316 27.5083 98.3238 28.9348 97.7402 30.3614C97.2297 29.2439 96.7191 28.0789 96.2085 26.9139C95.4548 25.2021 94.7497 23.514 94.0932 21.8497H88.6227C90.7623 26.6524 92.9019 31.4551 95.0414 36.2577C94.6038 37.2563 94.1905 38.2786 93.7771 39.301C93.2179 40.68 92.6587 42.0352 92.1238 43.3904C93.4124 44.6505 94.7254 45.9344 96.014 47.1945C99.2963 39.2534 103.308 29.7908 106.59 21.8497H101.168C100.634 23.2287 100.099 24.6315 99.5151 26.0342Z" fill="white"/>
<path d="M120.887 12.601C120.133 12.601 119.477 12.8626 118.942 13.3856C118.407 13.9087 118.115 14.5506 118.115 15.2877C118.115 16.0247 118.382 16.6429 118.942 17.1897C119.477 17.7366 120.133 17.9981 120.887 17.9981C121.64 17.9981 122.297 17.7366 122.856 17.2135C123.415 16.6904 123.683 16.0485 123.683 15.2877C123.683 14.5269 123.415 13.9087 122.856 13.3856C122.297 12.8626 121.64 12.601 120.887 12.601Z" fill="white"/>
<path d="M67.6888 35.4018C66.8378 34.5459 65.9625 33.7137 65.1116 32.8816C63.5798 32.8816 62.0237 32.8578 60.492 32.8578C60.492 27.8887 60.492 29.4817 60.4677 25.3447C60.4677 25.2734 60.4677 23.514 60.4677 23.4427C60.4677 23.0147 60.4677 17.3562 60.4677 16.9282C59.7383 16.2149 58.9846 15.4779 58.2551 14.7646L55.2646 11.8402V19.3533V20.2568V33.5949V37.7794H59.1547H70.0958C69.2935 36.9948 68.4911 36.2102 67.6888 35.4018Z" fill="white"/>
<path d="M114.03 26.3671C114.03 26.2958 114.03 25.4636 114.03 25.3923C114.03 24.9643 114.03 17.475 114.03 17.0471L111.818 14.8835C110.821 13.9087 109.824 12.9339 108.827 11.9591V21.2791C108.827 28.8635 108.827 29.7908 108.827 37.7556H114.03V32.834C114.03 28.2454 114.03 30.3376 114.03 26.3671Z" fill="white"/>
<path d="M84.9757 34.4746C84.3192 34.4746 83.0792 34.4746 82.3498 34.4746C82.3498 34.4746 82.3498 34.4746 82.3255 34.4746C82.2769 34.4746 82.2526 34.4746 82.2039 34.4746C81.8149 34.4746 81.3043 34.4746 80.6965 34.4746C79.724 34.4508 79.262 34.4508 78.7757 34.4032C77.7303 34.2606 76.8063 34.1655 76.0769 33.5473C75.4205 32.9767 74.9828 32.1208 74.7883 30.9795H87.0423C87.0666 30.6467 87.091 30.4089 87.1153 30.2425C87.1153 30.0761 87.1396 29.9096 87.1396 29.7908C87.1396 27.1755 86.3859 25.107 84.8784 23.6091C83.371 22.0875 81.3286 21.3504 78.7271 21.3504C76.2228 21.3504 74.1562 22.1588 72.5272 23.7756C70.9225 25.3923 70.1201 27.437 70.1201 29.9572C70.1201 32.5487 70.8981 34.6172 72.4299 36.1626C73.8887 37.6129 75.8095 38.3737 78.2408 38.4451H78.3381C78.5326 38.4451 78.6785 38.4688 78.7028 38.4688C78.8487 38.4688 80.3561 38.5402 82.8118 38.5164C83.76 38.5164 84.9271 38.4926 86.2886 38.4451C86.629 38.4451 86.9694 38.4451 87.3098 38.4451C87.6745 38.4451 88.7443 38.4451 89.109 38.4451C88.258 37.6367 87.407 36.8283 86.5317 35.9962C85.9725 35.4493 85.4619 34.9501 84.9757 34.4746ZM76.1499 25.8678C76.782 25.3447 77.633 25.107 78.7028 25.107C79.7726 25.107 80.5992 25.3685 81.2314 25.8678C81.8392 26.3909 82.2283 27.1517 82.3498 28.1503H74.9342C75.1044 27.1517 75.5177 26.3909 76.1499 25.8678Z" fill="white"/>
<path d="M118.553 28.4593C118.553 31.146 118.553 33.1431 118.553 37.7794H123.269V21.8497H118.553V28.4593Z" fill="white"/>
<path d="M143.936 23.8469C143.425 22.991 142.769 22.349 141.894 21.9448C141.043 21.5169 139.973 21.3267 138.709 21.3267C137.517 21.3267 136.423 21.5644 135.451 22.0637C134.502 22.5392 133.603 23.2763 132.776 24.2748V21.8497H132.703H128.059V28.4593V33.1669C128.059 34.4032 128.059 35.8773 128.059 37.7794H132.776H132.8V30.7656V30.1236C132.8 29.1251 132.873 28.388 132.995 27.8887C133.116 27.3894 133.335 26.9615 133.627 26.5811C133.992 26.0818 134.454 25.7252 134.989 25.4636C135.548 25.2021 136.131 25.0594 136.788 25.0594C137.906 25.0594 138.709 25.3685 139.17 26.0105C139.632 26.6286 139.876 27.9363 139.876 29.8859V37.7556H144.617V28.4356V27.9363C144.617 26.7475 144.568 25.8678 144.447 25.321C144.349 24.7741 144.179 24.2748 143.936 23.8469Z" fill="white"/>
</svg>
