<svg width="108" height="53" viewBox="0 0 108 53" fill="none" xmlns="http://www.w3.org/2000/svg">
<path d="M35.5653 45.6513C35.5653 49.72 32.2785 53 28.2415 53H19.1135C15.1121 53 11.7896 49.7379 11.7896 45.6513V7.34866C11.7896 3.29794 15.0764 0 19.1135 0H28.2415C32.2785 0 35.5475 3.26209 35.5653 7.34866V45.6513ZM7.60966 13.1021C7.60966 12.1701 6.75223 11.4711 5.84122 11.6682C2.21502 12.439 0 15.5397 0 18.8197V34.1623C0 37.4244 2.17929 40.5431 5.84122 41.3138C6.75223 41.511 7.60966 40.812 7.60966 39.8799V13.1021ZM67.9868 22.1241C67.9868 20.5109 66.6828 19.1846 65.0572 19.1846H42.9428C41.3172 19.1846 40.0132 20.493 40.0132 22.1241V30.8759C40.0132 32.4891 41.3172 33.8154 42.9428 33.8154H65.0572C66.6828 33.8154 67.9868 32.507 67.9868 30.8759V22.1241ZM100.39 39.8979C100.39 40.8299 101.248 41.5289 102.177 41.3318C105.839 40.561 108 37.4244 108 34.1802V18.8197C108 15.5397 105.803 12.421 102.177 11.6682C101.266 11.4711 100.408 12.1701 100.408 13.1021L100.39 39.8979ZM96.1925 7.34866C96.1925 3.29794 92.9057 0 88.8687 0H79.7407C75.7036 0 72.4347 3.26209 72.4168 7.34866V45.6513C72.4168 49.7379 75.7036 53 79.7407 53H88.8687C92.9057 53 96.1925 49.7021 96.1925 45.6513V7.34866Z" fill="url(#paint0_linear)"/>
<defs>
<linearGradient id="paint0_linear" x1="16.4323" y1="0.166909" x2="44.1128" y2="71.0923" gradientUnits="userSpaceOnUse">
<stop stop-color="#8BD2FA"/>
<stop offset="1" stop-color="#5E34D7"/>
</linearGradient>
</defs>
</svg>
