<svg width="43" height="48" viewBox="0 0 43 48" fill="none" xmlns="http://www.w3.org/2000/svg">
<path d="M42.1832 11.4877L30.653 4.98767V9.26269L38.3739 13.5877C38.8597 13.8627 39.1409 14.3627 39.1409 14.8877V33.1128C39.1409 33.6628 38.8341 34.1628 38.3739 34.4128L37.2234 35.0628L21.9607 26.4628C21.705 26.3128 21.3982 26.3128 21.1426 26.4628L17.9724 28.2628L13.2172 30.9628L9.81695 32.8878C9.66356 32.9628 9.66356 33.1878 9.81695 33.2628L20.8614 39.4628C21.0659 39.5878 21.3471 39.5878 21.5516 39.4628L30.0139 34.6628L36.5332 38.3378L37.7348 39.0128L42.1576 36.5128C42.6178 36.2628 42.899 35.7878 42.899 35.2628V12.7127C42.9246 12.2127 42.6434 11.7377 42.1832 11.4877ZM26.5114 32.9878L24.3127 34.2378C24.1593 34.3128 23.9804 34.3128 23.827 34.2378L21.3727 32.8628L18.4326 34.5128C18.3048 34.5878 18.1514 34.5878 18.0236 34.5128L15.7226 33.2128C15.5948 33.1378 15.5948 32.9878 15.7226 32.9128L21.1937 29.8128C21.2704 29.7628 21.3727 29.7628 21.4749 29.8128L26.5114 32.6378C26.6392 32.7378 26.6392 32.9128 26.5114 32.9878Z" fill="url(#paint0_linear)"/>
<path d="M22.2425 43.5374C21.7568 43.8124 21.1688 43.8124 20.7086 43.5374L4.57659 34.4374C4.09084 34.1624 3.80961 33.6624 3.80961 33.1374V31.7874L19.0468 23.1873C19.3025 23.0373 19.4559 22.7623 19.4559 22.4873V18.8873V13.5373V9.71226C19.4559 9.53726 19.2769 9.43725 19.1235 9.51226L8.0791 15.7373C7.87457 15.8623 7.74674 16.0873 7.74674 16.3123V25.8873L1.22747 29.5624L0.0258789 30.2374V35.2624C0.0258789 35.7874 0.307102 36.2624 0.767286 36.5124L20.7342 47.8124C21.1943 48.0624 21.7568 48.0624 22.217 47.8124L33.9005 41.2124L30.1168 39.0874L22.2425 43.5374ZM10.9936 21.2623C10.9936 21.0873 11.0959 20.9373 11.2493 20.8373L13.7036 19.4373V16.1623C13.7036 16.0123 13.7803 15.8873 13.9081 15.8123L16.209 14.5123C16.3368 14.4373 16.4647 14.5373 16.4647 14.6623V20.8373C16.4647 20.9373 16.4135 21.0123 16.3368 21.0623L11.3004 23.8873C11.1726 23.9623 10.9936 23.8623 10.9936 23.7123V21.2623Z" fill="url(#paint1_linear)"/>
<path d="M3.78373 14.8876C3.78373 14.3376 4.09052 13.8376 4.55071 13.5876L20.6827 4.48752C21.1685 4.21252 21.7565 4.21252 22.2167 4.48752L23.5205 5.23753L23.5461 22.3126C23.5461 22.6126 23.6995 22.8626 23.9551 23.0126L27.1253 24.7876L31.855 27.4626L35.2552 29.3876C35.4086 29.4626 35.5876 29.3626 35.5876 29.1876V16.7376C35.5876 16.4876 35.4597 16.2626 35.2296 16.1626L26.7418 11.3876V4.01252V2.81251L22.2167 0.187501C21.7565 -0.0625003 21.194 -0.0625003 20.7338 0.187501L0.741408 11.4876C0.281224 11.7376 0 12.2126 0 12.7376V25.8876L3.78373 23.7626V14.8876ZM27.0742 15.1626L29.2728 16.4126C29.4262 16.4876 29.5285 16.6626 29.5285 16.8376V19.6126L32.443 21.2626C32.5708 21.3376 32.6475 21.4626 32.6475 21.6126V24.2126C32.6475 24.3376 32.4941 24.4376 32.3918 24.3626L26.9208 21.2626C26.8441 21.2126 26.7929 21.1376 26.7929 21.0376V15.3626C26.7674 15.1876 26.9208 15.0876 27.0742 15.1626Z" fill="url(#paint2_linear)"/>
<defs>
<linearGradient id="paint0_linear" x1="26.3266" y1="39.5274" x2="26.3266" y2="4.97936" gradientUnits="userSpaceOnUse">
<stop stop-color="#39AAE3"/>
<stop offset="0.5126" stop-color="#5478E4"/>
<stop offset="1" stop-color="#6A6EF1"/>
</linearGradient>
<linearGradient id="paint1_linear" x1="16.9891" y1="47.9674" x2="16.9891" y2="9.4778" gradientUnits="userSpaceOnUse">
<stop stop-color="#39AAE3"/>
<stop offset="0.5126" stop-color="#5478E4"/>
<stop offset="1" stop-color="#6A6EF1"/>
</linearGradient>
<linearGradient id="paint2_linear" x1="17.821" y1="29.388" x2="17.821" y2="-0.00707492" gradientUnits="userSpaceOnUse">
<stop stop-color="#39AAE3"/>
<stop offset="0.5126" stop-color="#5478E4"/>
<stop offset="1" stop-color="#6A6EF1"/>
</linearGradient>
</defs>
</svg>
