<?xml version="1.0" encoding="utf-8"?>
<!-- Generator: Adobe Illustrator 24.1.0, SVG Export Plug-In . SVG Version: 6.00 Build 0)  -->
<svg version="1.1" id="Calque_1" xmlns="http://www.w3.org/2000/svg" xmlns:xlink="http://www.w3.org/1999/xlink" x="0px" y="0px"
	 viewBox="0 0 100 125" style="enable-background:new 0 0 100 125;" xml:space="preserve">
<style type="text/css">
	.st0{fill:#FFFFFF;}
</style>
<g>
	<g>
		<path class="st0" d="M84.9,48.8c4.4,0,8-3.6,8-8c0-4.4-3.6-8-8-8c-4.4,0-8,3.6-8,8C76.9,45.2,80.5,48.8,84.9,48.8z"/>
		<path class="st0" d="M92.9,59.2H81.2l-3.5-8.5c-0.1-0.4-0.4-0.7-0.6-1l-0.2-0.3L68.9,40l-7-8.3c-0.7-0.9-1.8-1.4-2.9-1.4H43.8
			c-2.1,0-3.8,1.7-3.8,3.8c0,2.1,1.7,3.8,3.8,3.8h13.4l4.2,5L44.7,58.9c-0.4,0.3-0.8,0.6-1.1,0.9c-2.5,2.6-2.4,6.7,0.3,9.2l13,12.3
			l-16.8,4c-2.1,0.5-3.4,2.6-2.9,4.7c0.5,2.1,2.6,3.4,4.7,2.9l23.8-5.7c0.4-0.1,0.9-0.3,1.3-0.6c1.8-1.2,2.2-3.6,1-5.4l-0.2-0.4
			l-9.8-14.3l14-9.9l3.2,7.8c0.6,1.4,2,2.4,3.5,2.4h14.3c2.1,0,3.8-1.7,3.8-3.8C96.7,60.9,95,59.2,92.9,59.2z"/>
		<path class="st0" d="M40.6,72.5c-2-1.9-3.2-4.4-3.5-7.2l-25.6,22c-1.7,1.4-2,4-0.6,5.7c1.4,1.8,4,2.2,5.9,0.7L42.2,74L40.6,72.5z"
			/>
	</g>
	<path class="st0" d="M46.1,47.3c0,1.3-1.1,2.4-2.4,2.4H23.9c-1.3,0-2.4-1.1-2.4-2.4l0,0c0-1.3,1.1-2.4,2.4-2.4h19.8
		C45,44.9,46.1,45.9,46.1,47.3L46.1,47.3z"/>
	<path class="st0" d="M37,56.4c0,1.3-1.1,2.4-2.4,2.4H14.8c-1.3,0-2.4-1.1-2.4-2.4l0,0c0-1.3,1.1-2.4,2.4-2.4h19.8
		C35.9,53.9,37,55,37,56.4L37,56.4z"/>
	<path class="st0" d="M27.9,65.5c0,1.3-1.1,2.4-2.4,2.4H5.7c-1.3,0-2.4-1.1-2.4-2.4l0,0c0-1.3,1.1-2.4,2.4-2.4h19.8
		C26.8,63,27.9,64.1,27.9,65.5L27.9,65.5z"/>
</g>
</svg>
